<mxfile host="app.diagrams.net" agent="Mozilla/5.0 (Windows NT 10.0; Win64; x64) AppleWebKit/537.36 (KHTML, like Gecko) Chrome/129.0.0.0 Safari/537.36" version="24.8.0">
  <diagram name="Strona-1" id="D0WtJ--KG0pHbl8i14lQ">
    <mxGraphModel dx="2062" dy="1830" grid="1" gridSize="10" guides="1" tooltips="1" connect="1" arrows="1" fold="1" page="1" pageScale="1" pageWidth="827" pageHeight="1169" math="0" shadow="0">
      <root>
        <mxCell id="0" />
        <mxCell id="1" parent="0" />
        <mxCell id="Cw_Zhbjyzplr6PI6fNdj-1" value="CLIENT CORE" style="rounded=0;whiteSpace=wrap;html=1;" parent="1" vertex="1">
          <mxGeometry x="130" y="220" width="120" height="60" as="geometry" />
        </mxCell>
        <mxCell id="PejXEIsaFlRkTcH4WxqB-6" style="edgeStyle=orthogonalEdgeStyle;rounded=0;orthogonalLoop=1;jettySize=auto;html=1;entryX=0.5;entryY=0;entryDx=0;entryDy=0;" edge="1" parent="1" source="Cw_Zhbjyzplr6PI6fNdj-2" target="PejXEIsaFlRkTcH4WxqB-5">
          <mxGeometry relative="1" as="geometry" />
        </mxCell>
        <mxCell id="Cw_Zhbjyzplr6PI6fNdj-2" value="SERVER CORE" style="rounded=0;whiteSpace=wrap;html=1;" parent="1" vertex="1">
          <mxGeometry x="590" y="220" width="120" height="60" as="geometry" />
        </mxCell>
        <mxCell id="Cw_Zhbjyzplr6PI6fNdj-11" style="edgeStyle=orthogonalEdgeStyle;rounded=0;orthogonalLoop=1;jettySize=auto;html=1;entryX=0.5;entryY=0;entryDx=0;entryDy=0;" parent="1" source="Cw_Zhbjyzplr6PI6fNdj-7" target="Cw_Zhbjyzplr6PI6fNdj-10" edge="1">
          <mxGeometry relative="1" as="geometry" />
        </mxCell>
        <mxCell id="Cw_Zhbjyzplr6PI6fNdj-13" style="edgeStyle=orthogonalEdgeStyle;rounded=0;orthogonalLoop=1;jettySize=auto;html=1;entryX=0.5;entryY=0;entryDx=0;entryDy=0;" parent="1" source="Cw_Zhbjyzplr6PI6fNdj-7" target="Cw_Zhbjyzplr6PI6fNdj-12" edge="1">
          <mxGeometry relative="1" as="geometry" />
        </mxCell>
        <mxCell id="Cw_Zhbjyzplr6PI6fNdj-15" style="edgeStyle=orthogonalEdgeStyle;rounded=0;orthogonalLoop=1;jettySize=auto;html=1;entryX=0.5;entryY=0;entryDx=0;entryDy=0;" parent="1" source="Cw_Zhbjyzplr6PI6fNdj-7" target="Cw_Zhbjyzplr6PI6fNdj-14" edge="1">
          <mxGeometry relative="1" as="geometry" />
        </mxCell>
        <mxCell id="Cw_Zhbjyzplr6PI6fNdj-7" value="CLIENT" style="whiteSpace=wrap;html=1;rounded=0;" parent="1" vertex="1">
          <mxGeometry x="358" y="-210" width="120" height="60" as="geometry" />
        </mxCell>
        <mxCell id="Cw_Zhbjyzplr6PI6fNdj-10" value="TOOLS" style="whiteSpace=wrap;html=1;rounded=0;" parent="1" vertex="1">
          <mxGeometry x="358" y="-100" width="120" height="60" as="geometry" />
        </mxCell>
        <mxCell id="Cw_Zhbjyzplr6PI6fNdj-12" value="INTERFACES" style="whiteSpace=wrap;html=1;rounded=0;" parent="1" vertex="1">
          <mxGeometry x="195" y="-100" width="120" height="60" as="geometry" />
        </mxCell>
        <mxCell id="Cw_Zhbjyzplr6PI6fNdj-14" value="SERVICES" style="whiteSpace=wrap;html=1;rounded=0;" parent="1" vertex="1">
          <mxGeometry x="521" y="-100" width="120" height="60" as="geometry" />
        </mxCell>
        <mxCell id="Cw_Zhbjyzplr6PI6fNdj-16" value="ASSETS" style="whiteSpace=wrap;html=1;rounded=0;" parent="1" vertex="1">
          <mxGeometry x="690" y="-360" width="120" height="60" as="geometry" />
        </mxCell>
        <mxCell id="Cw_Zhbjyzplr6PI6fNdj-23" style="edgeStyle=orthogonalEdgeStyle;rounded=0;orthogonalLoop=1;jettySize=auto;html=1;entryX=0.5;entryY=0;entryDx=0;entryDy=0;" parent="1" source="Cw_Zhbjyzplr6PI6fNdj-22" target="Cw_Zhbjyzplr6PI6fNdj-7" edge="1">
          <mxGeometry relative="1" as="geometry" />
        </mxCell>
        <mxCell id="Cw_Zhbjyzplr6PI6fNdj-27" style="edgeStyle=orthogonalEdgeStyle;rounded=0;orthogonalLoop=1;jettySize=auto;html=1;entryX=0.5;entryY=1;entryDx=0;entryDy=0;" parent="1" source="Cw_Zhbjyzplr6PI6fNdj-22" target="Cw_Zhbjyzplr6PI6fNdj-24" edge="1">
          <mxGeometry relative="1" as="geometry" />
        </mxCell>
        <mxCell id="Cw_Zhbjyzplr6PI6fNdj-29" value="" style="edgeStyle=orthogonalEdgeStyle;rounded=0;orthogonalLoop=1;jettySize=auto;html=1;" parent="1" source="Cw_Zhbjyzplr6PI6fNdj-22" target="Cw_Zhbjyzplr6PI6fNdj-28" edge="1">
          <mxGeometry relative="1" as="geometry" />
        </mxCell>
        <mxCell id="Cw_Zhbjyzplr6PI6fNdj-22" value="SYSTEM" style="whiteSpace=wrap;html=1;rounded=0;" parent="1" vertex="1">
          <mxGeometry x="358" y="-310" width="120" height="60" as="geometry" />
        </mxCell>
        <mxCell id="Cw_Zhbjyzplr6PI6fNdj-26" style="edgeStyle=orthogonalEdgeStyle;rounded=0;orthogonalLoop=1;jettySize=auto;html=1;entryX=0.5;entryY=1;entryDx=0;entryDy=0;" parent="1" source="Cw_Zhbjyzplr6PI6fNdj-24" target="Cw_Zhbjyzplr6PI6fNdj-25" edge="1">
          <mxGeometry relative="1" as="geometry" />
        </mxCell>
        <mxCell id="Cw_Zhbjyzplr6PI6fNdj-34" style="edgeStyle=orthogonalEdgeStyle;rounded=0;orthogonalLoop=1;jettySize=auto;html=1;" parent="1" source="Cw_Zhbjyzplr6PI6fNdj-24" target="Cw_Zhbjyzplr6PI6fNdj-33" edge="1">
          <mxGeometry relative="1" as="geometry" />
        </mxCell>
        <mxCell id="Cw_Zhbjyzplr6PI6fNdj-24" value="SERVER" style="whiteSpace=wrap;html=1;rounded=0;" parent="1" vertex="1">
          <mxGeometry x="358" y="-410" width="120" height="60" as="geometry" />
        </mxCell>
        <mxCell id="Cw_Zhbjyzplr6PI6fNdj-25" value="SERVICES" style="whiteSpace=wrap;html=1;rounded=0;" parent="1" vertex="1">
          <mxGeometry x="170" y="-510" width="120" height="60" as="geometry" />
        </mxCell>
        <mxCell id="Cw_Zhbjyzplr6PI6fNdj-31" style="edgeStyle=orthogonalEdgeStyle;rounded=0;orthogonalLoop=1;jettySize=auto;html=1;entryX=0;entryY=0.5;entryDx=0;entryDy=0;" parent="1" source="Cw_Zhbjyzplr6PI6fNdj-28" target="Cw_Zhbjyzplr6PI6fNdj-30" edge="1">
          <mxGeometry relative="1" as="geometry" />
        </mxCell>
        <mxCell id="Cw_Zhbjyzplr6PI6fNdj-32" style="edgeStyle=orthogonalEdgeStyle;rounded=0;orthogonalLoop=1;jettySize=auto;html=1;entryX=0;entryY=0.5;entryDx=0;entryDy=0;" parent="1" source="Cw_Zhbjyzplr6PI6fNdj-28" target="Cw_Zhbjyzplr6PI6fNdj-16" edge="1">
          <mxGeometry relative="1" as="geometry" />
        </mxCell>
        <mxCell id="Cw_Zhbjyzplr6PI6fNdj-28" value="SHARED" style="whiteSpace=wrap;html=1;rounded=0;" parent="1" vertex="1">
          <mxGeometry x="510" y="-310" width="120" height="60" as="geometry" />
        </mxCell>
        <mxCell id="Cw_Zhbjyzplr6PI6fNdj-30" value="CONSTANTS" style="whiteSpace=wrap;html=1;rounded=0;" parent="1" vertex="1">
          <mxGeometry x="690" y="-260" width="120" height="60" as="geometry" />
        </mxCell>
        <mxCell id="Cw_Zhbjyzplr6PI6fNdj-33" value="TOOLS" style="whiteSpace=wrap;html=1;rounded=0;" parent="1" vertex="1">
          <mxGeometry x="358" y="-510" width="120" height="60" as="geometry" />
        </mxCell>
        <mxCell id="PejXEIsaFlRkTcH4WxqB-5" value="PlayerAdded" style="whiteSpace=wrap;html=1;rounded=0;" vertex="1" parent="1">
          <mxGeometry x="590" y="320" width="120" height="60" as="geometry" />
        </mxCell>
        <mxCell id="PejXEIsaFlRkTcH4WxqB-7" value="Framework" style="swimlane;fontStyle=1;align=center;verticalAlign=top;childLayout=stackLayout;horizontal=1;startSize=26;horizontalStack=0;resizeParent=1;resizeParentMax=0;resizeLast=0;collapsible=1;marginBottom=0;whiteSpace=wrap;html=1;" vertex="1" parent="1">
          <mxGeometry x="303" y="220" width="230" height="320" as="geometry" />
        </mxCell>
        <mxCell id="PejXEIsaFlRkTcH4WxqB-8" value="+ Server" style="text;strokeColor=none;fillColor=none;align=left;verticalAlign=top;spacingLeft=4;spacingRight=4;overflow=hidden;rotatable=0;points=[[0,0.5],[1,0.5]];portConstraint=eastwest;whiteSpace=wrap;html=1;" vertex="1" parent="PejXEIsaFlRkTcH4WxqB-7">
          <mxGeometry y="26" width="230" height="26" as="geometry" />
        </mxCell>
        <mxCell id="PejXEIsaFlRkTcH4WxqB-12" value="+ Shared" style="text;strokeColor=none;fillColor=none;align=left;verticalAlign=top;spacingLeft=4;spacingRight=4;overflow=hidden;rotatable=0;points=[[0,0.5],[1,0.5]];portConstraint=eastwest;whiteSpace=wrap;html=1;" vertex="1" parent="PejXEIsaFlRkTcH4WxqB-7">
          <mxGeometry y="52" width="230" height="26" as="geometry" />
        </mxCell>
        <mxCell id="PejXEIsaFlRkTcH4WxqB-9" value="" style="line;strokeWidth=1;fillColor=none;align=left;verticalAlign=middle;spacingTop=-1;spacingLeft=3;spacingRight=3;rotatable=0;labelPosition=right;points=[];portConstraint=eastwest;strokeColor=inherit;" vertex="1" parent="PejXEIsaFlRkTcH4WxqB-7">
          <mxGeometry y="78" width="230" height="8" as="geometry" />
        </mxCell>
        <mxCell id="PejXEIsaFlRkTcH4WxqB-10" value="+ LoadLibrary(name: string): Library" style="text;strokeColor=none;fillColor=none;align=left;verticalAlign=top;spacingLeft=4;spacingRight=4;overflow=hidden;rotatable=0;points=[[0,0.5],[1,0.5]];portConstraint=eastwest;whiteSpace=wrap;html=1;" vertex="1" parent="PejXEIsaFlRkTcH4WxqB-7">
          <mxGeometry y="86" width="230" height="26" as="geometry" />
        </mxCell>
        <mxCell id="PejXEIsaFlRkTcH4WxqB-11" value="+ LoadSystem(system: Folder)" style="text;strokeColor=none;fillColor=none;align=left;verticalAlign=top;spacingLeft=4;spacingRight=4;overflow=hidden;rotatable=0;points=[[0,0.5],[1,0.5]];portConstraint=eastwest;whiteSpace=wrap;html=1;" vertex="1" parent="PejXEIsaFlRkTcH4WxqB-7">
          <mxGeometry y="112" width="230" height="26" as="geometry" />
        </mxCell>
        <mxCell id="PejXEIsaFlRkTcH4WxqB-57" value="+ GetSystem(system: name)" style="text;strokeColor=none;fillColor=none;align=left;verticalAlign=top;spacingLeft=4;spacingRight=4;overflow=hidden;rotatable=0;points=[[0,0.5],[1,0.5]];portConstraint=eastwest;whiteSpace=wrap;html=1;" vertex="1" parent="PejXEIsaFlRkTcH4WxqB-7">
          <mxGeometry y="138" width="230" height="26" as="geometry" />
        </mxCell>
        <mxCell id="PejXEIsaFlRkTcH4WxqB-112" value="- getSystemData(system: Folder)" style="text;strokeColor=none;fillColor=none;align=left;verticalAlign=top;spacingLeft=4;spacingRight=4;overflow=hidden;rotatable=0;points=[[0,0.5],[1,0.5]];portConstraint=eastwest;whiteSpace=wrap;html=1;" vertex="1" parent="PejXEIsaFlRkTcH4WxqB-7">
          <mxGeometry y="164" width="230" height="26" as="geometry" />
        </mxCell>
        <mxCell id="PejXEIsaFlRkTcH4WxqB-34" value="- loadTools(system: Folder)" style="text;strokeColor=none;fillColor=none;align=left;verticalAlign=top;spacingLeft=4;spacingRight=4;overflow=hidden;rotatable=0;points=[[0,0.5],[1,0.5]];portConstraint=eastwest;whiteSpace=wrap;html=1;" vertex="1" parent="PejXEIsaFlRkTcH4WxqB-7">
          <mxGeometry y="190" width="230" height="26" as="geometry" />
        </mxCell>
        <mxCell id="PejXEIsaFlRkTcH4WxqB-39" value="- loadComponents(system: Folder)" style="text;strokeColor=none;fillColor=none;align=left;verticalAlign=top;spacingLeft=4;spacingRight=4;overflow=hidden;rotatable=0;points=[[0,0.5],[1,0.5]];portConstraint=eastwest;whiteSpace=wrap;html=1;" vertex="1" parent="PejXEIsaFlRkTcH4WxqB-7">
          <mxGeometry y="216" width="230" height="26" as="geometry" />
        </mxCell>
        <mxCell id="PejXEIsaFlRkTcH4WxqB-43" value="- loadInterfaces(system: Folder)" style="text;strokeColor=none;fillColor=none;align=left;verticalAlign=top;spacingLeft=4;spacingRight=4;overflow=hidden;rotatable=0;points=[[0,0.5],[1,0.5]];portConstraint=eastwest;whiteSpace=wrap;html=1;" vertex="1" parent="PejXEIsaFlRkTcH4WxqB-7">
          <mxGeometry y="242" width="230" height="26" as="geometry" />
        </mxCell>
        <mxCell id="PejXEIsaFlRkTcH4WxqB-44" value="- loadServices(system: Folder)" style="text;strokeColor=none;fillColor=none;align=left;verticalAlign=top;spacingLeft=4;spacingRight=4;overflow=hidden;rotatable=0;points=[[0,0.5],[1,0.5]];portConstraint=eastwest;whiteSpace=wrap;html=1;" vertex="1" parent="PejXEIsaFlRkTcH4WxqB-7">
          <mxGeometry y="268" width="230" height="26" as="geometry" />
        </mxCell>
        <mxCell id="PejXEIsaFlRkTcH4WxqB-33" value="- loadHandlers(services: {})" style="text;strokeColor=none;fillColor=none;align=left;verticalAlign=top;spacingLeft=4;spacingRight=4;overflow=hidden;rotatable=0;points=[[0,0.5],[1,0.5]];portConstraint=eastwest;whiteSpace=wrap;html=1;" vertex="1" parent="PejXEIsaFlRkTcH4WxqB-7">
          <mxGeometry y="294" width="230" height="26" as="geometry" />
        </mxCell>
        <mxCell id="PejXEIsaFlRkTcH4WxqB-30" value="" style="edgeStyle=orthogonalEdgeStyle;rounded=0;orthogonalLoop=1;jettySize=auto;html=1;" edge="1" parent="1" source="PejXEIsaFlRkTcH4WxqB-13" target="PejXEIsaFlRkTcH4WxqB-24">
          <mxGeometry relative="1" as="geometry" />
        </mxCell>
        <mxCell id="PejXEIsaFlRkTcH4WxqB-13" value="CLIENT LOAD HIERARCHY" style="rounded=0;whiteSpace=wrap;html=1;" vertex="1" parent="1">
          <mxGeometry x="-250" y="-220" width="120" height="60" as="geometry" />
        </mxCell>
        <mxCell id="PejXEIsaFlRkTcH4WxqB-16" value="" style="edgeStyle=orthogonalEdgeStyle;rounded=0;orthogonalLoop=1;jettySize=auto;html=1;" edge="1" parent="1" source="PejXEIsaFlRkTcH4WxqB-14" target="PejXEIsaFlRkTcH4WxqB-15">
          <mxGeometry relative="1" as="geometry" />
        </mxCell>
        <mxCell id="PejXEIsaFlRkTcH4WxqB-14" value="SERVER LOAD HIERARCHY" style="rounded=0;whiteSpace=wrap;html=1;" vertex="1" parent="1">
          <mxGeometry x="-430" y="-220" width="120" height="60" as="geometry" />
        </mxCell>
        <mxCell id="PejXEIsaFlRkTcH4WxqB-40" style="edgeStyle=orthogonalEdgeStyle;rounded=0;orthogonalLoop=1;jettySize=auto;html=1;entryX=0.5;entryY=0;entryDx=0;entryDy=0;" edge="1" parent="1" source="PejXEIsaFlRkTcH4WxqB-15" target="PejXEIsaFlRkTcH4WxqB-18">
          <mxGeometry relative="1" as="geometry" />
        </mxCell>
        <mxCell id="PejXEIsaFlRkTcH4WxqB-15" value="Tools" style="whiteSpace=wrap;html=1;rounded=0;" vertex="1" parent="1">
          <mxGeometry x="-430" y="-120" width="120" height="60" as="geometry" />
        </mxCell>
        <mxCell id="PejXEIsaFlRkTcH4WxqB-17" value="Handlers" style="whiteSpace=wrap;html=1;rounded=0;" vertex="1" parent="1">
          <mxGeometry x="-430" y="200" width="120" height="60" as="geometry" />
        </mxCell>
        <mxCell id="PejXEIsaFlRkTcH4WxqB-41" style="edgeStyle=orthogonalEdgeStyle;rounded=0;orthogonalLoop=1;jettySize=auto;html=1;entryX=0.5;entryY=0;entryDx=0;entryDy=0;" edge="1" parent="1" source="PejXEIsaFlRkTcH4WxqB-18" target="PejXEIsaFlRkTcH4WxqB-19">
          <mxGeometry relative="1" as="geometry" />
        </mxCell>
        <mxCell id="PejXEIsaFlRkTcH4WxqB-18" value="Components" style="whiteSpace=wrap;html=1;rounded=0;" vertex="1" parent="1">
          <mxGeometry x="-430" y="-10" width="120" height="60" as="geometry" />
        </mxCell>
        <mxCell id="PejXEIsaFlRkTcH4WxqB-42" style="edgeStyle=orthogonalEdgeStyle;rounded=0;orthogonalLoop=1;jettySize=auto;html=1;entryX=0.5;entryY=0;entryDx=0;entryDy=0;" edge="1" parent="1" source="PejXEIsaFlRkTcH4WxqB-19" target="PejXEIsaFlRkTcH4WxqB-17">
          <mxGeometry relative="1" as="geometry" />
        </mxCell>
        <mxCell id="PejXEIsaFlRkTcH4WxqB-19" value="Services" style="whiteSpace=wrap;html=1;rounded=0;" vertex="1" parent="1">
          <mxGeometry x="-430" y="100" width="120" height="60" as="geometry" />
        </mxCell>
        <mxCell id="PejXEIsaFlRkTcH4WxqB-36" style="edgeStyle=orthogonalEdgeStyle;rounded=0;orthogonalLoop=1;jettySize=auto;html=1;" edge="1" parent="1" source="PejXEIsaFlRkTcH4WxqB-24" target="PejXEIsaFlRkTcH4WxqB-28">
          <mxGeometry relative="1" as="geometry" />
        </mxCell>
        <mxCell id="PejXEIsaFlRkTcH4WxqB-24" value="Tools" style="whiteSpace=wrap;html=1;rounded=0;" vertex="1" parent="1">
          <mxGeometry x="-250" y="-120" width="120" height="60" as="geometry" />
        </mxCell>
        <mxCell id="PejXEIsaFlRkTcH4WxqB-26" value="Handlers" style="whiteSpace=wrap;html=1;rounded=0;" vertex="1" parent="1">
          <mxGeometry x="-250" y="250" width="120" height="60" as="geometry" />
        </mxCell>
        <mxCell id="PejXEIsaFlRkTcH4WxqB-27" value="" style="edgeStyle=orthogonalEdgeStyle;rounded=0;orthogonalLoop=1;jettySize=auto;html=1;" edge="1" source="PejXEIsaFlRkTcH4WxqB-31" target="PejXEIsaFlRkTcH4WxqB-29" parent="1">
          <mxGeometry relative="1" as="geometry" />
        </mxCell>
        <mxCell id="PejXEIsaFlRkTcH4WxqB-28" value="Components" style="whiteSpace=wrap;html=1;rounded=0;" vertex="1" parent="1">
          <mxGeometry x="-250" y="-30" width="120" height="60" as="geometry" />
        </mxCell>
        <mxCell id="PejXEIsaFlRkTcH4WxqB-37" style="edgeStyle=orthogonalEdgeStyle;rounded=0;orthogonalLoop=1;jettySize=auto;html=1;" edge="1" parent="1" source="PejXEIsaFlRkTcH4WxqB-29" target="PejXEIsaFlRkTcH4WxqB-26">
          <mxGeometry relative="1" as="geometry" />
        </mxCell>
        <mxCell id="PejXEIsaFlRkTcH4WxqB-29" value="Services" style="whiteSpace=wrap;html=1;rounded=0;" vertex="1" parent="1">
          <mxGeometry x="-250" y="160" width="120" height="60" as="geometry" />
        </mxCell>
        <mxCell id="PejXEIsaFlRkTcH4WxqB-32" value="" style="edgeStyle=orthogonalEdgeStyle;rounded=0;orthogonalLoop=1;jettySize=auto;html=1;" edge="1" parent="1" source="PejXEIsaFlRkTcH4WxqB-28" target="PejXEIsaFlRkTcH4WxqB-31">
          <mxGeometry relative="1" as="geometry">
            <mxPoint x="-190" y="30" as="sourcePoint" />
            <mxPoint x="-190" y="160" as="targetPoint" />
          </mxGeometry>
        </mxCell>
        <mxCell id="PejXEIsaFlRkTcH4WxqB-31" value="Interfaces" style="whiteSpace=wrap;html=1;rounded=0;" vertex="1" parent="1">
          <mxGeometry x="-250" y="70" width="120" height="60" as="geometry" />
        </mxCell>
        <mxCell id="PejXEIsaFlRkTcH4WxqB-46" value="Service" style="swimlane;fontStyle=1;align=center;verticalAlign=top;childLayout=stackLayout;horizontal=1;startSize=26;horizontalStack=0;resizeParent=1;resizeParentMax=0;resizeLast=0;collapsible=1;marginBottom=0;whiteSpace=wrap;html=1;" vertex="1" parent="1">
          <mxGeometry x="-277.5" y="960" width="230" height="138" as="geometry" />
        </mxCell>
        <mxCell id="PejXEIsaFlRkTcH4WxqB-47" value="+ Framework" style="text;strokeColor=none;fillColor=none;align=left;verticalAlign=top;spacingLeft=4;spacingRight=4;overflow=hidden;rotatable=0;points=[[0,0.5],[1,0.5]];portConstraint=eastwest;whiteSpace=wrap;html=1;" vertex="1" parent="PejXEIsaFlRkTcH4WxqB-46">
          <mxGeometry y="26" width="230" height="26" as="geometry" />
        </mxCell>
        <mxCell id="PejXEIsaFlRkTcH4WxqB-48" value="+ System" style="text;strokeColor=none;fillColor=none;align=left;verticalAlign=top;spacingLeft=4;spacingRight=4;overflow=hidden;rotatable=0;points=[[0,0.5],[1,0.5]];portConstraint=eastwest;whiteSpace=wrap;html=1;" vertex="1" parent="PejXEIsaFlRkTcH4WxqB-46">
          <mxGeometry y="52" width="230" height="26" as="geometry" />
        </mxCell>
        <mxCell id="PejXEIsaFlRkTcH4WxqB-101" value="+ Server_Constants (SERVER ONLY)" style="text;strokeColor=none;fillColor=none;align=left;verticalAlign=top;spacingLeft=4;spacingRight=4;overflow=hidden;rotatable=0;points=[[0,0.5],[1,0.5]];portConstraint=eastwest;whiteSpace=wrap;html=1;" vertex="1" parent="PejXEIsaFlRkTcH4WxqB-46">
          <mxGeometry y="78" width="230" height="26" as="geometry" />
        </mxCell>
        <mxCell id="PejXEIsaFlRkTcH4WxqB-49" value="" style="line;strokeWidth=1;fillColor=none;align=left;verticalAlign=middle;spacingTop=-1;spacingLeft=3;spacingRight=3;rotatable=0;labelPosition=right;points=[];portConstraint=eastwest;strokeColor=inherit;" vertex="1" parent="PejXEIsaFlRkTcH4WxqB-46">
          <mxGeometry y="104" width="230" height="8" as="geometry" />
        </mxCell>
        <mxCell id="PejXEIsaFlRkTcH4WxqB-50" value="+ main()" style="text;strokeColor=none;fillColor=none;align=left;verticalAlign=top;spacingLeft=4;spacingRight=4;overflow=hidden;rotatable=0;points=[[0,0.5],[1,0.5]];portConstraint=eastwest;whiteSpace=wrap;html=1;" vertex="1" parent="PejXEIsaFlRkTcH4WxqB-46">
          <mxGeometry y="112" width="230" height="26" as="geometry" />
        </mxCell>
        <mxCell id="PejXEIsaFlRkTcH4WxqB-58" value="System" style="swimlane;fontStyle=0;childLayout=stackLayout;horizontal=1;startSize=26;fillColor=none;horizontalStack=0;resizeParent=1;resizeParentMax=0;resizeLast=0;collapsible=1;marginBottom=0;whiteSpace=wrap;html=1;" vertex="1" parent="1">
          <mxGeometry x="-510" y="410" width="140" height="104" as="geometry" />
        </mxCell>
        <mxCell id="PejXEIsaFlRkTcH4WxqB-59" value="+ Constants" style="text;strokeColor=none;fillColor=none;align=left;verticalAlign=top;spacingLeft=4;spacingRight=4;overflow=hidden;rotatable=0;points=[[0,0.5],[1,0.5]];portConstraint=eastwest;whiteSpace=wrap;html=1;" vertex="1" parent="PejXEIsaFlRkTcH4WxqB-58">
          <mxGeometry y="26" width="140" height="26" as="geometry" />
        </mxCell>
        <mxCell id="PejXEIsaFlRkTcH4WxqB-60" value="+ Assets" style="text;strokeColor=none;fillColor=none;align=left;verticalAlign=top;spacingLeft=4;spacingRight=4;overflow=hidden;rotatable=0;points=[[0,0.5],[1,0.5]];portConstraint=eastwest;whiteSpace=wrap;html=1;" vertex="1" parent="PejXEIsaFlRkTcH4WxqB-58">
          <mxGeometry y="52" width="140" height="26" as="geometry" />
        </mxCell>
        <mxCell id="PejXEIsaFlRkTcH4WxqB-62" value="+ Remotes" style="text;strokeColor=none;fillColor=none;align=left;verticalAlign=top;spacingLeft=4;spacingRight=4;overflow=hidden;rotatable=0;points=[[0,0.5],[1,0.5]];portConstraint=eastwest;whiteSpace=wrap;html=1;" vertex="1" parent="PejXEIsaFlRkTcH4WxqB-58">
          <mxGeometry y="78" width="140" height="26" as="geometry" />
        </mxCell>
        <mxCell id="PejXEIsaFlRkTcH4WxqB-64" value="Component" style="swimlane;fontStyle=1;align=center;verticalAlign=top;childLayout=stackLayout;horizontal=1;startSize=26;horizontalStack=0;resizeParent=1;resizeParentMax=0;resizeLast=0;collapsible=1;marginBottom=0;whiteSpace=wrap;html=1;" vertex="1" parent="1">
          <mxGeometry x="-280" y="635" width="230" height="138" as="geometry" />
        </mxCell>
        <mxCell id="PejXEIsaFlRkTcH4WxqB-65" value="+ Framework" style="text;strokeColor=none;fillColor=none;align=left;verticalAlign=top;spacingLeft=4;spacingRight=4;overflow=hidden;rotatable=0;points=[[0,0.5],[1,0.5]];portConstraint=eastwest;whiteSpace=wrap;html=1;" vertex="1" parent="PejXEIsaFlRkTcH4WxqB-64">
          <mxGeometry y="26" width="230" height="26" as="geometry" />
        </mxCell>
        <mxCell id="PejXEIsaFlRkTcH4WxqB-66" value="+ System" style="text;strokeColor=none;fillColor=none;align=left;verticalAlign=top;spacingLeft=4;spacingRight=4;overflow=hidden;rotatable=0;points=[[0,0.5],[1,0.5]];portConstraint=eastwest;whiteSpace=wrap;html=1;" vertex="1" parent="PejXEIsaFlRkTcH4WxqB-64">
          <mxGeometry y="52" width="230" height="26" as="geometry" />
        </mxCell>
        <mxCell id="PejXEIsaFlRkTcH4WxqB-108" value="+ Server_Constants (SERVER ONLY)" style="text;strokeColor=none;fillColor=none;align=left;verticalAlign=top;spacingLeft=4;spacingRight=4;overflow=hidden;rotatable=0;points=[[0,0.5],[1,0.5]];portConstraint=eastwest;whiteSpace=wrap;html=1;" vertex="1" parent="PejXEIsaFlRkTcH4WxqB-64">
          <mxGeometry y="78" width="230" height="26" as="geometry" />
        </mxCell>
        <mxCell id="PejXEIsaFlRkTcH4WxqB-67" value="" style="line;strokeWidth=1;fillColor=none;align=left;verticalAlign=middle;spacingTop=-1;spacingLeft=3;spacingRight=3;rotatable=0;labelPosition=right;points=[];portConstraint=eastwest;strokeColor=inherit;" vertex="1" parent="PejXEIsaFlRkTcH4WxqB-64">
          <mxGeometry y="104" width="230" height="8" as="geometry" />
        </mxCell>
        <mxCell id="PejXEIsaFlRkTcH4WxqB-68" value="+ construct(instance: Instance)" style="text;strokeColor=none;fillColor=none;align=left;verticalAlign=top;spacingLeft=4;spacingRight=4;overflow=hidden;rotatable=0;points=[[0,0.5],[1,0.5]];portConstraint=eastwest;whiteSpace=wrap;html=1;" vertex="1" parent="PejXEIsaFlRkTcH4WxqB-64">
          <mxGeometry y="112" width="230" height="26" as="geometry" />
        </mxCell>
        <mxCell id="PejXEIsaFlRkTcH4WxqB-75" value="Tool" style="swimlane;fontStyle=1;align=center;verticalAlign=top;childLayout=stackLayout;horizontal=1;startSize=26;horizontalStack=0;resizeParent=1;resizeParentMax=0;resizeLast=0;collapsible=1;marginBottom=0;whiteSpace=wrap;html=1;" vertex="1" parent="1">
          <mxGeometry x="-280" y="380" width="230" height="216" as="geometry" />
        </mxCell>
        <mxCell id="PejXEIsaFlRkTcH4WxqB-76" value="+ Framework" style="text;strokeColor=none;fillColor=none;align=left;verticalAlign=top;spacingLeft=4;spacingRight=4;overflow=hidden;rotatable=0;points=[[0,0.5],[1,0.5]];portConstraint=eastwest;whiteSpace=wrap;html=1;" vertex="1" parent="PejXEIsaFlRkTcH4WxqB-75">
          <mxGeometry y="26" width="230" height="26" as="geometry" />
        </mxCell>
        <mxCell id="PejXEIsaFlRkTcH4WxqB-77" value="+ System" style="text;strokeColor=none;fillColor=none;align=left;verticalAlign=top;spacingLeft=4;spacingRight=4;overflow=hidden;rotatable=0;points=[[0,0.5],[1,0.5]];portConstraint=eastwest;whiteSpace=wrap;html=1;" vertex="1" parent="PejXEIsaFlRkTcH4WxqB-75">
          <mxGeometry y="52" width="230" height="26" as="geometry" />
        </mxCell>
        <mxCell id="PejXEIsaFlRkTcH4WxqB-78" value="" style="line;strokeWidth=1;fillColor=none;align=left;verticalAlign=middle;spacingTop=-1;spacingLeft=3;spacingRight=3;rotatable=0;labelPosition=right;points=[];portConstraint=eastwest;strokeColor=inherit;" vertex="1" parent="PejXEIsaFlRkTcH4WxqB-75">
          <mxGeometry y="78" width="230" height="8" as="geometry" />
        </mxCell>
        <mxCell id="PejXEIsaFlRkTcH4WxqB-86" value="+ construct(tool: Tool)" style="text;strokeColor=none;fillColor=none;align=left;verticalAlign=top;spacingLeft=4;spacingRight=4;overflow=hidden;rotatable=0;points=[[0,0.5],[1,0.5]];portConstraint=eastwest;whiteSpace=wrap;html=1;" vertex="1" parent="PejXEIsaFlRkTcH4WxqB-75">
          <mxGeometry y="86" width="230" height="26" as="geometry" />
        </mxCell>
        <mxCell id="PejXEIsaFlRkTcH4WxqB-87" value="+ OnEquip()" style="text;strokeColor=none;fillColor=none;align=left;verticalAlign=top;spacingLeft=4;spacingRight=4;overflow=hidden;rotatable=0;points=[[0,0.5],[1,0.5]];portConstraint=eastwest;whiteSpace=wrap;html=1;" vertex="1" parent="PejXEIsaFlRkTcH4WxqB-75">
          <mxGeometry y="112" width="230" height="26" as="geometry" />
        </mxCell>
        <mxCell id="PejXEIsaFlRkTcH4WxqB-88" value="+ OnUnequip()" style="text;strokeColor=none;fillColor=none;align=left;verticalAlign=top;spacingLeft=4;spacingRight=4;overflow=hidden;rotatable=0;points=[[0,0.5],[1,0.5]];portConstraint=eastwest;whiteSpace=wrap;html=1;" vertex="1" parent="PejXEIsaFlRkTcH4WxqB-75">
          <mxGeometry y="138" width="230" height="26" as="geometry" />
        </mxCell>
        <mxCell id="PejXEIsaFlRkTcH4WxqB-117" value="+ OnActivated()" style="text;strokeColor=none;fillColor=none;align=left;verticalAlign=top;spacingLeft=4;spacingRight=4;overflow=hidden;rotatable=0;points=[[0,0.5],[1,0.5]];portConstraint=eastwest;whiteSpace=wrap;html=1;" vertex="1" parent="PejXEIsaFlRkTcH4WxqB-75">
          <mxGeometry y="164" width="230" height="26" as="geometry" />
        </mxCell>
        <mxCell id="PejXEIsaFlRkTcH4WxqB-126" value="+ OnDeactivated()" style="text;strokeColor=none;fillColor=none;align=left;verticalAlign=top;spacingLeft=4;spacingRight=4;overflow=hidden;rotatable=0;points=[[0,0.5],[1,0.5]];portConstraint=eastwest;whiteSpace=wrap;html=1;" vertex="1" parent="PejXEIsaFlRkTcH4WxqB-75">
          <mxGeometry y="190" width="230" height="26" as="geometry" />
        </mxCell>
        <mxCell id="PejXEIsaFlRkTcH4WxqB-80" value="Interface" style="swimlane;fontStyle=1;align=center;verticalAlign=top;childLayout=stackLayout;horizontal=1;startSize=26;horizontalStack=0;resizeParent=1;resizeParentMax=0;resizeLast=0;collapsible=1;marginBottom=0;whiteSpace=wrap;html=1;" vertex="1" parent="1">
          <mxGeometry x="-277.5" y="810" width="230" height="112" as="geometry" />
        </mxCell>
        <mxCell id="PejXEIsaFlRkTcH4WxqB-81" value="+ Framework" style="text;strokeColor=none;fillColor=none;align=left;verticalAlign=top;spacingLeft=4;spacingRight=4;overflow=hidden;rotatable=0;points=[[0,0.5],[1,0.5]];portConstraint=eastwest;whiteSpace=wrap;html=1;" vertex="1" parent="PejXEIsaFlRkTcH4WxqB-80">
          <mxGeometry y="26" width="230" height="26" as="geometry" />
        </mxCell>
        <mxCell id="PejXEIsaFlRkTcH4WxqB-82" value="+ System" style="text;strokeColor=none;fillColor=none;align=left;verticalAlign=top;spacingLeft=4;spacingRight=4;overflow=hidden;rotatable=0;points=[[0,0.5],[1,0.5]];portConstraint=eastwest;whiteSpace=wrap;html=1;" vertex="1" parent="PejXEIsaFlRkTcH4WxqB-80">
          <mxGeometry y="52" width="230" height="26" as="geometry" />
        </mxCell>
        <mxCell id="PejXEIsaFlRkTcH4WxqB-83" value="" style="line;strokeWidth=1;fillColor=none;align=left;verticalAlign=middle;spacingTop=-1;spacingLeft=3;spacingRight=3;rotatable=0;labelPosition=right;points=[];portConstraint=eastwest;strokeColor=inherit;" vertex="1" parent="PejXEIsaFlRkTcH4WxqB-80">
          <mxGeometry y="78" width="230" height="8" as="geometry" />
        </mxCell>
        <mxCell id="PejXEIsaFlRkTcH4WxqB-85" value="+ main(gui: ScreenGui)" style="text;strokeColor=none;fillColor=none;align=left;verticalAlign=top;spacingLeft=4;spacingRight=4;overflow=hidden;rotatable=0;points=[[0,0.5],[1,0.5]];portConstraint=eastwest;whiteSpace=wrap;html=1;" vertex="1" parent="PejXEIsaFlRkTcH4WxqB-80">
          <mxGeometry y="86" width="230" height="26" as="geometry" />
        </mxCell>
        <mxCell id="PejXEIsaFlRkTcH4WxqB-102" value="Handlers" style="swimlane;fontStyle=1;align=center;verticalAlign=top;childLayout=stackLayout;horizontal=1;startSize=26;horizontalStack=0;resizeParent=1;resizeParentMax=0;resizeLast=0;collapsible=1;marginBottom=0;whiteSpace=wrap;html=1;" vertex="1" parent="1">
          <mxGeometry x="-272.5" y="1130" width="230" height="112" as="geometry" />
        </mxCell>
        <mxCell id="PejXEIsaFlRkTcH4WxqB-103" value="+ Framework" style="text;strokeColor=none;fillColor=none;align=left;verticalAlign=top;spacingLeft=4;spacingRight=4;overflow=hidden;rotatable=0;points=[[0,0.5],[1,0.5]];portConstraint=eastwest;whiteSpace=wrap;html=1;" vertex="1" parent="PejXEIsaFlRkTcH4WxqB-102">
          <mxGeometry y="26" width="230" height="26" as="geometry" />
        </mxCell>
        <mxCell id="PejXEIsaFlRkTcH4WxqB-104" value="+ System" style="text;strokeColor=none;fillColor=none;align=left;verticalAlign=top;spacingLeft=4;spacingRight=4;overflow=hidden;rotatable=0;points=[[0,0.5],[1,0.5]];portConstraint=eastwest;whiteSpace=wrap;html=1;" vertex="1" parent="PejXEIsaFlRkTcH4WxqB-102">
          <mxGeometry y="52" width="230" height="26" as="geometry" />
        </mxCell>
        <mxCell id="PejXEIsaFlRkTcH4WxqB-105" value="+ Server_Constants (SERVER ONLY)" style="text;strokeColor=none;fillColor=none;align=left;verticalAlign=top;spacingLeft=4;spacingRight=4;overflow=hidden;rotatable=0;points=[[0,0.5],[1,0.5]];portConstraint=eastwest;whiteSpace=wrap;html=1;" vertex="1" parent="PejXEIsaFlRkTcH4WxqB-102">
          <mxGeometry y="78" width="230" height="26" as="geometry" />
        </mxCell>
        <mxCell id="PejXEIsaFlRkTcH4WxqB-106" value="" style="line;strokeWidth=1;fillColor=none;align=left;verticalAlign=middle;spacingTop=-1;spacingLeft=3;spacingRight=3;rotatable=0;labelPosition=right;points=[];portConstraint=eastwest;strokeColor=inherit;" vertex="1" parent="PejXEIsaFlRkTcH4WxqB-102">
          <mxGeometry y="104" width="230" height="8" as="geometry" />
        </mxCell>
        <mxCell id="PejXEIsaFlRkTcH4WxqB-111" value="" style="edgeStyle=orthogonalEdgeStyle;rounded=0;orthogonalLoop=1;jettySize=auto;html=1;" edge="1" parent="1" source="PejXEIsaFlRkTcH4WxqB-109" target="PejXEIsaFlRkTcH4WxqB-110">
          <mxGeometry relative="1" as="geometry" />
        </mxCell>
        <mxCell id="PejXEIsaFlRkTcH4WxqB-109" value="Load System" style="html=1;whiteSpace=wrap;" vertex="1" parent="1">
          <mxGeometry x="358" y="585" width="110" height="50" as="geometry" />
        </mxCell>
        <mxCell id="PejXEIsaFlRkTcH4WxqB-114" value="" style="edgeStyle=orthogonalEdgeStyle;rounded=0;orthogonalLoop=1;jettySize=auto;html=1;" edge="1" parent="1" source="PejXEIsaFlRkTcH4WxqB-110" target="PejXEIsaFlRkTcH4WxqB-113">
          <mxGeometry relative="1" as="geometry" />
        </mxCell>
        <mxCell id="PejXEIsaFlRkTcH4WxqB-110" value="getSystemData()&lt;div&gt;(gets assets, constants etc)&lt;/div&gt;" style="whiteSpace=wrap;html=1;" vertex="1" parent="1">
          <mxGeometry x="354" y="670" width="120" height="60" as="geometry" />
        </mxCell>
        <mxCell id="PejXEIsaFlRkTcH4WxqB-116" style="edgeStyle=orthogonalEdgeStyle;rounded=0;orthogonalLoop=1;jettySize=auto;html=1;entryX=0.5;entryY=0;entryDx=0;entryDy=0;" edge="1" parent="1" source="PejXEIsaFlRkTcH4WxqB-113" target="PejXEIsaFlRkTcH4WxqB-115">
          <mxGeometry relative="1" as="geometry" />
        </mxCell>
        <mxCell id="PejXEIsaFlRkTcH4WxqB-113" value="loadTools()&lt;div&gt;- inject system data and framework&lt;/div&gt;" style="whiteSpace=wrap;html=1;" vertex="1" parent="1">
          <mxGeometry x="353" y="758" width="120" height="60" as="geometry" />
        </mxCell>
        <mxCell id="PejXEIsaFlRkTcH4WxqB-115" value="loadComponents()&lt;div&gt;- inject system data and framework&lt;/div&gt;" style="whiteSpace=wrap;html=1;" vertex="1" parent="1">
          <mxGeometry x="353" y="850" width="120" height="60" as="geometry" />
        </mxCell>
      </root>
    </mxGraphModel>
  </diagram>
</mxfile>
